PathFileType	4	(X/Y/Z)	/Users/itak/Documents/Research/Walk-IL/dataset/trc/00142_00007.trc
DataRate	CameraRate	NumFrames	NumMarkers	Units	OrigDataRate	OrigDataStartFrame	OrigNumFrames
100.000000	100.000000	4	53	mm	100.000000	0	540
Frame#	Time	RPSI			LPSI			L3			STRN			T10			C7			CLAV			RBAK			LBAK			LSHO			LUPA			LAEL			LAOL			LWTS			LWPS			LFRA			LIFD			LHPS			LHTS			RSHO			RUPA			RAEL			RAOL			RWTS			RWPS			RFRA			RIFD			RHTS			RHPS			RBHD			LFHD			RFHD			LBHD			LHIP			RHIP			RASI			LASI			LKNE			LTHI			LANK			LTIP			LTOE			LMT1			LMT5			LHEE			RKNE			RTHI			RANK			RTIP			RTOE			RMT1			RMT5			RHEE			
		X1	Y1	Z1	X2	Y2	Z2	X3	Y3	Z3	X4	Y4	Z4	X5	Y5	Z5	X6	Y6	Z6	X7	Y7	Z7	X8	Y8	Z8	X9	Y9	Z9	X10	Y10	Z10	X11	Y11	Z11	X12	Y12	Z12	X13	Y13	Z13	X14	Y14	Z14	X15	Y15	Z15	X16	Y16	Z16	X17	Y17	Z17	X18	Y18	Z18	X19	Y19	Z19	X20	Y20	Z20	X21	Y21	Z21	X22	Y22	Z22	X23	Y23	Z23	X24	Y24	Z24	X25	Y25	Z25	X26	Y26	Z26	X27	Y27	Z27	X28	Y28	Z28	X29	Y29	Z29	X30	Y30	Z30	X31	Y31	Z31	X32	Y32	Z32	X33	Y33	Z33	X34	Y34	Z34	X35	Y35	Z35	X36	Y36	Z36	X37	Y37	Z37	X38	Y38	Z38	X39	Y39	Z39	X40	Y40	Z40	X41	Y41	Z41	X42	Y42	Z42	X43	Y43	Z43	X44	Y44	Z44	X45	Y45	Z45	X46	Y46	Z46	X47	Y47	Z47	X48	Y48	Z48	X49	Y49	Z49	X50	Y50	Z50	X51	Y51	Z51	X52	Y52	Z52	X53	Y53	Z53	

1	0	-848.6254272460938	1128.138427734375	1217.154541015625	-850.0201416015625	1128.489868164062	1082.442016601562	-857.3989868164062	1155.009887695312	1147.957153320312	-657.9608154296875	1365.085693359375	1140.28955078125	-903.7146606445312	1301.476928710938	1150.13623046875	-896.1467895507812	1595.135986328125	1130.131225585938	-705.5972900390625	1496.48779296875	1133.671752929688	-934.6204223632812	1410.267700195312	1222.209838867188	-904.8057861328125	1571.5185546875	1029.319213867188	-820.7216796875	1559.721801757812	957.382080078125	-842.9334106445312	1425.323486328125	892.473388671875	-832.5526123046875	1206.617553710938	875.46728515625	-892.0521240234375	1197.926513671875	942.8143310546875	-739.9913940429688	944.1547241210938	911.108154296875	-824.9342041015625	923.1033325195312	893.9493408203125	-822.23583984375	1089.840209960938	872.2999267578125	-733.6553955078125	748.993408203125	929.9828491210938	-801.4513549804688	846.5470581054688	892.5834350585938	-732.5338134765625	854.355224609375	901.661865234375	-833.6875	1584.92919921875	1308.340209960938	-845.8262329101562	1513.497802734375	1375.773071289062	-838.8370971679688	1220.562622070312	1408.702270507812	-851.0780029296875	1215.133422851562	1313.611450195312	-683.3815307617188	983.2384033203125	1393.6787109375	-754.9736938476562	965.3549194335938	1432.628784179688	-809.9548950195312	1149.008666992188	1426.159423828125	-646.4818725585938	790.3533935546875	1387.255859375	-648.4603271484375	878.2396850585938	1402.52197265625	-711.93701171875	867.3516845703125	1436.535766601562	-785.6697998046875	1758.178100585938	1224.488891601562	-786.35888671875	1852.554443359375	1023.599182128906	-689.5757446289062	1857.783935546875	1111.333984375	-890.7391967773438	1756.422973632812	1140.565063476562	-753.1744384765625	1042.494262695312	964.8429565429688	-715.4896850585938	1033.735717773438	1332.963989257812	-637.3202514648438	1108.5908203125	1277.140502929688	-650.5996704101562	1107.288330078125	1010.927368164062	-745.1375732421875	540.2976684570312	991.5071411132812	-762.01513671875	686.8052978515625	967.0933227539062	-877.3630981445312	40.37070846557617	990.27587890625	-855.7501220703125	296.7244262695312	961.7633056640625	-648.1295776367188	41.39621353149414	1054.812377929688	-730.67236328125	42.7607307434082	1085.6650390625	-749.588134765625	40.17577743530273	970.2840576171875	-950.5811157226562	42.719482421875	1048.268188476562	-750.5573120117188	541.4105834960938	1298.417846679688	-704.0518188476562	820.016357421875	1322.838256835938	-869.2510375976562	33.45018005371094	1276.894897460938	-782.6061401367188	409.9671936035156	1308.925170898438	-634.3486938476562	46.06756591796875	1235.014892578125	-692.2999267578125	36.54560089111328	1192.007568359375	-737.586669921875	42.1074333190918	1306.923828125	-924.7885131835938	35.36483764648438	1225.452392578125	
2	0.01	-848.610107421875	1128.22900390625	1217.1279296875	-850.2653198242188	1128.568481445312	1082.402221679688	-857.509765625	1155.119262695312	1147.935668945312	-658.0554809570312	1365.083740234375	1139.966430664062	-903.8706665039062	1301.47705078125	1150.030151367188	-896.22265625	1595.156860351562	1130.09521484375	-705.6458740234375	1496.479125976562	1133.496826171875	-934.6571655273438	1410.233764648438	1222.11669921875	-904.9120483398438	1571.580444335938	1029.268920898438	-820.8402099609375	1559.843627929688	957.291259765625	-842.8511962890625	1425.480224609375	892.282470703125	-831.9048461914062	1206.800415039062	875.0338134765625	-891.3062744140625	1197.797241210938	942.1497802734375	-738.4661865234375	944.56005859375	910.4970703125	-823.3261108398438	923.283447265625	893.1746826171875	-821.051513671875	1090.08154296875	871.681640625	-731.6524047851562	749.4043579101562	929.0909423828125	-799.5914306640625	846.8283081054688	891.7047729492188	-730.738525390625	854.794921875	900.8968505859375	-833.6829833984375	1584.856567382812	1308.26123046875	-845.823974609375	1513.396484375	1375.641235351562	-839.342041015625	1220.467651367188	1408.289184570312	-851.50390625	1215.155639648438	1313.181762695312	-684.209228515625	982.916015625	1393.165161132812	-755.834228515625	965.064453125	1432.068725585938	-810.5360717773438	1148.80517578125	1425.727172851562	-647.6216430664062	789.939453125	1386.5771484375	-649.44970703125	877.7947387695312	1401.920654296875	-712.95068359375	867.058349609375	1435.922241210938	-785.899169921875	1758.2353515625	1224.473388671875	-786.4296264648438	1852.608276367188	1023.58984375	-689.7346801757812	1857.88134765625	1111.391479492188	-890.8799438476562	1756.400634765625	1140.447265625	-753.5421752929688	1042.654907226562	964.6144409179688	-715.2998046875	1033.722290039062	1332.645141601562	-637.2481689453125	1108.536743164062	1276.702026367188	-650.9041748046875	1107.249877929688	1010.505493164062	-745.6934204101562	540.3845825195312	991.2398681640625	-762.5813598632812	686.8372192382812	966.8841552734375	-877.37255859375	40.35420608520508	990.2874145507812	-856.0262451171875	296.7310180664062	961.6634521484375	-648.1157836914062	41.38671493530273	1054.80126953125	-730.6758422851562	42.75883483886719	1085.657592773438	-749.5888671875	40.1584587097168	970.2632446289062	-950.610595703125	42.69744110107422	1048.304321289062	-750.6900024414062	541.4326782226562	1298.294067382812	-704.1405029296875	820.0133666992188	1322.577026367188	-869.2606201171875	33.44488143920898	1276.90966796875	-782.78515625	410.0073852539062	1308.838134765625	-634.3650512695312	46.08776473999023	1235.021118164062	-692.3200073242188	36.54229736328125	1192.006469726562	-737.5924072265625	42.11349105834961	1306.916015625	-924.8001708984375	35.34720230102539	1225.458374023438	
3	0.02	-848.6116333007812	1128.33447265625	1217.082763671875	-850.5916137695312	1128.671264648438	1082.339965820312	-857.66162109375	1155.2578125	1147.895385742188	-658.1669921875	1365.082885742188	1139.547119140625	-904.0960693359375	1301.492919921875	1149.880126953125	-896.3076171875	1595.1904296875	1130.045654296875	-705.7178344726562	1496.471435546875	1133.25927734375	-934.7009887695312	1410.204345703125	1221.997802734375	-905.0552368164062	1571.672973632812	1029.197265625	-821.0022583007812	1560.008422851562	957.1668090820312	-842.7833251953125	1425.6923828125	892.02490234375	-831.094970703125	1207.047973632812	874.4699096679688	-890.3922119140625	1197.660888671875	941.3062744140625	-736.506103515625	945.120361328125	909.720703125	-821.2427368164062	923.53369140625	892.1839599609375	-819.5518188476562	1090.397216796875	870.8936767578125	-729.0133056640625	749.9701538085938	927.9605712890625	-797.17919921875	847.2003173828125	890.5966186523438	-728.4078979492188	855.4034423828125	899.937744140625	-833.6580200195312	1584.767333984375	1308.1533203125	-845.798828125	1513.269287109375	1375.4609375	-839.9525146484375	1220.346557617188	1407.753662109375	-852.0211791992188	1215.182250976562	1312.624755859375	-685.2431640625	982.5052490234375	1392.515014648438	-756.9122314453125	964.7088623046875	1431.334228515625	-811.26123046875	1148.544677734375	1425.161254882812	-649.0382690429688	789.4224853515625	1385.72509765625	-650.6767578125	877.2423095703125	1401.164916992188	-714.2207641601562	866.6754150390625	1435.125244140625	-786.1658935546875	1758.300659179688	1224.455200195312	-786.5059814453125	1852.6826171875	1023.586059570312	-689.9224853515625	1858.0107421875	1111.472045898438	-891.0463256835938	1756.381103515625	1140.311157226562	-754.2471313476562	1042.71875	964.65380859375	-715.0846557617188	1033.714965820312	1332.246704101562	-637.177978515625	1108.477294921875	1276.156494140625	-651.3031616210938	1107.203735351562	1009.978698730469	-746.3318481445312	540.4692993164062	990.9270629882812	-763.266845703125	686.8748168945312	966.626953125	-877.38134765625	40.33610534667969	990.304443359375	-856.3470458984375	296.7265625	961.5492553710938	-648.09814453125	41.37074279785156	1054.791870117188	-730.676513671875	42.75548553466797	1085.651977539062	-749.6017456054688	40.14085388183594	970.2488403320312	-950.6546630859375	42.68547058105469	1048.339965820312	-750.8511352539062	541.4630126953125	1298.128540039062	-704.2559814453125	820.0131225585938	1322.248657226562	-869.2727661132812	33.43698883056641	1276.925659179688	-782.9949951171875	410.0576171875	1308.724731445312	-634.3859252929688	46.11521530151367	1235.030883789062	-692.3554077148438	36.53755569458008	1192.003784179688	-737.6007690429688	42.12051773071289	1306.906005859375	-924.8148803710938	35.32722091674805	1225.46533203125	
4	0.03	-848.6430053710938	1128.4453125	1217.013671875	-850.9924926757812	1128.794799804688	1082.252075195312	-857.8545532226562	1155.418579101562	1147.829223632812	-658.2887573242188	1365.082885742188	1139.0439453125	-904.3956909179688	1301.532470703125	1149.682006835938	-896.3927612304688	1595.239624023438	1129.981201171875	-705.815185546875	1496.466796875	1132.960693359375	-934.7496337890625	1410.1884765625	1221.854858398438	-905.2332763671875	1571.799194335938	1029.102905273438	-821.207763671875	1560.215576171875	957.0087280273438	-842.7446899414062	1425.958374023438	891.7028198242188	-830.1546630859375	1207.357543945312	873.7876586914062	-889.35791015625	1197.53369140625	940.3121337890625	-734.171630859375	945.835693359375	908.8082885742188	-818.74072265625	923.8565673828125	891.012451171875	-817.7944946289062	1090.780517578125	869.96337890625	-725.7880859375	750.694091796875	926.6345825195312	-794.2761840820312	847.6622314453125	889.30322265625	-725.6006469726562	856.1840209960938	898.8255615234375	-833.6043090820312	1584.66650390625	1308.016723632812	-845.7423706054688	1513.122192382812	1375.232788085938	-840.6336059570312	1220.199951171875	1407.106567382812	-852.59814453125	1215.212280273438	1311.955810546875	-686.4359130859375	982.0199584960938	1391.748413085938	-758.1619262695312	964.3046264648438	1430.441772460938	-812.0956420898438	1148.238525390625	1424.473266601562	-650.664794921875	788.8275756835938	1384.730102539062	-652.0848388671875	876.6078491210938	1400.28125	-715.693603515625	866.2142333984375	1434.16455078125	-786.4489135742188	1758.368408203125	1224.435546875	-786.5805053710938	1852.77783203125	1023.591552734375	-690.1268920898438	1858.17041015625	1111.57666015625	-891.2268676757812	1756.368774414062	1140.16796875	-755.3427124023438	1042.62158203125	965.0653686523438	-714.87353515625	1033.71875	1331.786743164062	-637.1265869140625	1108.418334960938	1275.531616210938	-651.7867431640625	1107.1533203125	1009.374084472656	-746.998779296875	540.540283203125	990.59521484375	-764.0225219726562	686.9147338867188	966.3379516601562	-877.3877563476562	40.31809234619141	990.3267211914062	-856.685302734375	296.7081604003906	961.4302978515625	-648.07666015625	41.34775161743164	1054.786743164062	-730.673095703125	42.75027847290039	1085.650024414062	-749.6267700195312	40.12474060058594	970.2433471679688	-950.712158203125	42.68743133544922	1048.371337890625	-751.031982421875	541.5003662109375	1297.924194335938	-704.3904418945312	820.0186767578125	1321.867797851562	-869.2860717773438	33.42670822143555	1276.941162109375	-783.2206420898438	410.115234375	1308.588012695312	-634.4107666015625	46.14886856079102	1235.044677734375	-692.4019165039062	36.53217697143555	1191.999389648438	-737.61181640625	42.12757873535156	1306.894653320312	-924.8310546875	35.30598831176758	1225.473266601562	
